<?xml version="1.0" encoding="utf-8"?>
<!-- Generator: Adobe Illustrator 25.2.3, SVG Export Plug-In . SVG Version: 6.00 Build 0)  -->
<svg version="1.1" id="Layer_1" xmlns="http://www.w3.org/2000/svg" xmlns:xlink="http://www.w3.org/1999/xlink" x="0px" y="0px"
	 viewBox="0 0 24 24" style="enable-background:new 0 0 24 24;" xml:space="preserve">
<style type="text/css">
	.st0{fill:#FFFFFF;}
	.st1{fill:#2E4153;}
</style>
<rect x="1.7" y="6.2" class="st0" width="19.8" height="12.4"/>
<path class="st1" d="M20.3,16.7H12v-2.4h8.3V16.7z M5.4,16.4l-1.7-1.7L6.4,12L3.7,9.3l1.7-1.7L9.8,12L5.4,16.4z M21.4,2.6H2.6
	c-0.7,0-1.2,0.2-1.7,0.7s-0.7,1-0.7,1.7v14.2c0,0.6,0.2,1.2,0.7,1.7s1,0.7,1.7,0.7h18.9c0.7,0,1.2-0.2,1.7-0.7s0.7-1,0.7-1.7V4.9
	c0-0.6-0.2-1.2-0.7-1.7S22.1,2.6,21.4,2.6z"/>
</svg>
