<?xml version="1.0" encoding="utf-8"?>
<!-- Generator: Adobe Illustrator 25.2.3, SVG Export Plug-In . SVG Version: 6.00 Build 0)  -->
<svg version="1.1" id="Layer_1" xmlns="http://www.w3.org/2000/svg" xmlns:xlink="http://www.w3.org/1999/xlink" x="0px" y="0px"
	 viewBox="0 0 24 24" style="enable-background:new 0 0 24 24;" xml:space="preserve">
<style type="text/css">
	.st0{fill-rule:evenodd;clip-rule:evenodd;fill:#FFFFFF;}
	.st1{fill-rule:evenodd;clip-rule:evenodd;fill:#FF4545;}
</style>
<rect x="1.4" y="4.6" class="st0" width="20.5" height="15.7"/>
<path class="st1" d="M22.3,21H1.7C0.8,21,0,20.2,0,19.3V5.7C0,4.8,0.8,4,1.7,4h20.6C23.2,4,24,4.8,24,5.7v13.6
	C24,20.2,23.2,21,22.3,21z M12,14.9L2.7,8.4l0,11.6h18.7V8.4C21.3,8.4,12,14.9,12,14.9z M20.9,5H3.1l8.9,6.2
	C12,11.2,18.3,6.8,20.9,5z"/>
</svg>
