<?xml version="1.0" encoding="utf-8"?>
<!-- Generator: Adobe Illustrator 25.2.3, SVG Export Plug-In . SVG Version: 6.00 Build 0)  -->
<svg version="1.1" id="Layer_1" xmlns="http://www.w3.org/2000/svg" xmlns:xlink="http://www.w3.org/1999/xlink" x="0px" y="0px"
	 viewBox="0 0 24 24" style="enable-background:new 0 0 24 24;" xml:space="preserve">
<style type="text/css">
	.st0{clip-path:url(#SVGID_2_);}
</style>
<g>
	<g>
		<defs>
			<path id="SVGID_1_" d="M14.6,11.5c0.4,1.9-1.3,3.5-3.1,3.1c-1-0.2-1.9-1.1-2.1-2.1C9,10.6,10.6,9,12.5,9.4
				C13.6,9.6,14.4,10.4,14.6,11.5z M18.5,8.8c0,0.8,0,1.1,0,3.2s0,2.4,0,3.2c-0.1,2.1-1.1,3.2-3.3,3.3c-0.8,0-1.1,0-3.2,0
				c-2.1,0-2.4,0-3.2,0c-2.2-0.1-3.2-1.1-3.3-3.3c0-0.8,0-1.1,0-3.2s0-2.4,0-3.2c0.1-2.2,1.1-3.2,3.3-3.3c0.8,0,1.1,0,3.2,0
				s2.4,0,3.2,0C17.4,5.6,18.4,6.6,18.5,8.8z M16.1,12.6c0.4-2.8-1.9-5.1-4.7-4.7c-1.7,0.3-3.1,1.7-3.4,3.4
				c-0.4,2.8,1.9,5.1,4.7,4.7C14.4,15.8,15.8,14.4,16.1,12.6z M17.2,7.7c0-0.5-0.4-1-1-1s-1,0.4-1,1s0.4,1,1,1
				C16.8,8.7,17.2,8.3,17.2,7.7z M24,5.9v12.1c0,3.3-2.7,5.9-5.9,5.9H5.9C2.7,24,0,21.3,0,18.1V5.9C0,2.7,2.7,0,5.9,0h12.1
				C21.3,0,24,2.7,24,5.9z M20,12c0-2.2,0-2.4,0-3.3c-0.1-2.5-2.1-4.5-4.7-4.7c-0.9,0-1.1,0-3.3,0C9.8,4,9.6,4,8.7,4
				C6.2,4.2,4.2,6.2,4,8.7C4,9.6,4,9.8,4,12c0,2.2,0,2.4,0,3.3c0.1,2.5,2.1,4.5,4.7,4.7c0.9,0,1.1,0,3.3,0c2.2,0,2.4,0,3.3,0
				c2.5-0.1,4.5-2.1,4.7-4.7C20,14.4,20,14.2,20,12z"/>
		</defs>
		<clipPath id="SVGID_2_">
			<use xlink:href="#SVGID_1_"  style="overflow:visible;"/>
		</clipPath>
		<g class="st0">
			<g>
				<defs>
					<rect id="SVGID_3_" x="-5" y="-5" width="34" height="34"/>
				</defs>
				<clipPath id="SVGID_4_">
					<use xlink:href="#SVGID_3_"  style="overflow:visible;"/>
				</clipPath>
				<g style="clip-path:url(#SVGID_4_);">
					
						<image style="overflow:visible;" width="72" height="72" xlink:href="A64C03E85601EB12.jpg"  transform="matrix(0.48 0 0 0.48 -5.28 -5.28)">
					</image>
				</g>
			</g>
		</g>
	</g>
</g>
</svg>
