<?xml version="1.0" encoding="utf-8"?>
<!-- Generator: Adobe Illustrator 25.2.3, SVG Export Plug-In . SVG Version: 6.00 Build 0)  -->
<svg version="1.1" id="Layer_1" xmlns="http://www.w3.org/2000/svg" xmlns:xlink="http://www.w3.org/1999/xlink" x="0px" y="0px"
	 viewBox="0 0 24 24" style="enable-background:new 0 0 24 24;" xml:space="preserve">
<style type="text/css">
	.st0{fill:#7900D8;}
</style>
<path class="st0" d="M18,17.2L14.3,12h2.3V7.5h3V12h2.3L18,17.2z M13.5,16.5h-3V12l-2.3,2.9L6,12v4.5H3v-9h3l2.3,3l2.3-3h3V16.5z
	 M22.3,4.5H1.7C1.3,4.5,0.9,4.7,0.5,5C0.2,5.4,0,5.8,0,6.2v11.5c0,0.5,0.2,0.9,0.5,1.2s0.7,0.5,1.2,0.5h20.6c0.5,0,0.9-0.2,1.2-0.5
	s0.5-0.7,0.5-1.2V6.2c0-0.5-0.2-0.9-0.5-1.2C23.1,4.7,22.7,4.5,22.3,4.5z"/>
</svg>
