<svg id="Layer_1" data-name="Layer 1" xmlns="http://www.w3.org/2000/svg" viewBox="0 0 24 24"><defs><style>.cls-1{fill:#fff;}.cls-2{fill:#7900d8;}</style></defs><rect class="cls-1" x="1.93" y="6.21" width="20.37" height="11.94"/><path class="cls-2" d="M18,17.2,14.3,12h2.3V7.5h3V12h2.3Zm-4.5-.7h-3V12L8.2,14.9,6,12v4.5H3v-9H6l2.3,3,2.3-3h3v9Zm8.8-12H1.7A2.08,2.08,0,0,0,.5,5,2.08,2.08,0,0,0,0,6.2V17.7a1.66,1.66,0,0,0,.5,1.2,1.66,1.66,0,0,0,1.2.5H22.3A1.71,1.71,0,0,0,24,17.7V6.2A1.66,1.66,0,0,0,23.5,5,2.08,2.08,0,0,0,22.3,4.5Z"/></svg>